<svg  viewBox="0 0 1440 950" preserveAspectRatio="xMidYMid meet" xmlns="http://www.w3.org/2000/svg"  >
<rect width="1440" height="1024" fill="#E9E9E9"/>
<rect x="324" y="125" width="791" height="774" fill="#D3D3D3"/>
<path d="M339 140V593H325V140H339Z" fill="#8F8F8F" stroke="black" stroke-width="2"/>
<path d="M1114 126V898H1100V126H1114Z" fill="#8F8F8F" stroke="black" stroke-width="2"/>
<path d="M325 126L1023 126V140L325 140V126Z" fill="#8F8F8F" stroke="black" stroke-width="2"/>
<path d="M325 884H1114V898H325V884Z" fill="#8F8F8F" stroke="black" stroke-width="2"/>
<path d="M332.572 593.717V682.338H325V593.717H332.572Z" fill="#8F8F8F" stroke="black" stroke-width="2"/>
<path d="M1023 126L1100 126V134L1023 134V126Z" fill="#8F8F8F" stroke="black" stroke-width="2"/>
<path d="M422 680.01H333.379V672.438H422V680.01Z" fill="#8F8F8F" stroke="black" stroke-width="2"/>
<path d="M339 681V885H325V681H339Z" fill="#8F8F8F" stroke="black" stroke-width="2"/>
<rect id="A1" x="339" y="592.7" width="74.8582" height="151.716" transform="rotate(-90 339 592.7)" fill="#864700" stroke="black" stroke-width="2"/>
<rect id="A2" x="490.301" y="592.7" width="74.8582" height="151.716" transform="rotate(-90 490.301 592.7)" fill="#864700" stroke="black" stroke-width="2"/>
<rect id="D1" x="716.721" y="214.858" width="74.8582" height="153.36" transform="rotate(-90 716.721 214.858)" fill="#864700" stroke="black" stroke-width="2"/>
<rect id="D2" x="869.64" y="214.858" width="74.8582" height="153.36" transform="rotate(-90 869.64 214.858)" fill="#864700" stroke="black" stroke-width="2"/>
<rect id="B1" x="715.959" y="517.697" width="73.8582" height="150.716" transform="rotate(180 715.959 517.697)" fill="#864700" stroke="black" stroke-width="3"/>
<rect id="B2" x="715.959" y="368.276" width="73.8582" height="150.716" transform="rotate(180 715.959 368.276)" fill="#864700" stroke="black" stroke-width="3"/>
<rect  x="569.5" y="677.5" width="73.8582" height="150.716" fill="#864700" stroke="black" stroke-width="3"/>
<rect  x="569.5" y="677.5" width="73.8582" height="150.716" fill="#864700" stroke="black" stroke-width="3"/>
<rect  x="796.306" y="677.5" width="73.8582" height="150.716" transform="rotate(90 796.306 677.5)" fill="#864700" stroke="black" stroke-width="3"/>
<rect  x="950.022" y="754.358" width="73.8582" height="150.716" transform="rotate(90 950.022 754.358)" fill="#864700" stroke="black" stroke-width="3"/>
<rect x="950.022" y="677.5" width="73.8582" height="150.716" transform="rotate(90 950.022 677.5)" fill="#864700" stroke="black" stroke-width="3"/>
<rect x="796.306" y="754.358" width="73.8582" height="150.716" transform="rotate(90 796.306 754.358)" fill="#864700" stroke="black" stroke-width="3"/>
<path d="M198.148 643V631.364H202.511C203.405 631.364 204.155 631.53 204.761 631.864C205.371 632.197 205.831 632.655 206.142 633.239C206.456 633.818 206.614 634.477 206.614 635.216C206.614 635.962 206.456 636.625 206.142 637.205C205.828 637.784 205.364 638.241 204.75 638.574C204.136 638.903 203.381 639.068 202.483 639.068H199.591V637.335H202.199C202.722 637.335 203.15 637.244 203.483 637.062C203.816 636.881 204.063 636.631 204.222 636.312C204.384 635.994 204.466 635.629 204.466 635.216C204.466 634.803 204.384 634.439 204.222 634.125C204.063 633.811 203.814 633.566 203.477 633.392C203.144 633.214 202.714 633.125 202.188 633.125H200.256V643H198.148ZM208.354 643V634.273H210.411V643H208.354ZM209.388 633.034C209.062 633.034 208.782 632.926 208.547 632.71C208.312 632.491 208.195 632.227 208.195 631.92C208.195 631.61 208.312 631.347 208.547 631.131C208.782 630.911 209.062 630.801 209.388 630.801C209.717 630.801 209.998 630.911 210.229 631.131C210.464 631.347 210.581 631.61 210.581 631.92C210.581 632.227 210.464 632.491 210.229 632.71C209.998 632.926 209.717 633.034 209.388 633.034ZM214.582 637.886V643H212.526V634.273H214.491V635.756H214.594C214.795 635.267 215.115 634.879 215.554 634.591C215.997 634.303 216.545 634.159 217.196 634.159C217.798 634.159 218.323 634.288 218.77 634.545C219.221 634.803 219.569 635.176 219.815 635.665C220.065 636.153 220.188 636.746 220.185 637.443V643H218.128V637.761C218.128 637.178 217.976 636.722 217.673 636.392C217.374 636.062 216.959 635.898 216.429 635.898C216.069 635.898 215.749 635.977 215.469 636.136C215.192 636.292 214.974 636.517 214.815 636.812C214.66 637.108 214.582 637.466 214.582 637.886ZM226.634 634.273V635.864H221.616V634.273H226.634ZM222.855 632.182H224.912V640.375C224.912 640.652 224.954 640.864 225.037 641.011C225.124 641.155 225.238 641.254 225.378 641.307C225.518 641.36 225.673 641.386 225.844 641.386C225.973 641.386 226.09 641.377 226.196 641.358C226.306 641.339 226.389 641.322 226.446 641.307L226.793 642.915C226.683 642.953 226.526 642.994 226.321 643.04C226.12 643.085 225.874 643.112 225.582 643.119C225.067 643.134 224.603 643.057 224.19 642.886C223.777 642.712 223.45 642.443 223.207 642.08C222.969 641.716 222.851 641.261 222.855 640.716V632.182ZM233.916 639.33V634.273H235.973V643H233.979V641.449H233.888C233.691 641.937 233.367 642.337 232.916 642.648C232.469 642.958 231.918 643.114 231.263 643.114C230.691 643.114 230.185 642.987 229.746 642.733C229.31 642.475 228.969 642.102 228.723 641.614C228.477 641.121 228.354 640.527 228.354 639.83V634.273H230.411V639.511C230.411 640.064 230.562 640.504 230.865 640.83C231.168 641.155 231.566 641.318 232.058 641.318C232.361 641.318 232.655 641.244 232.939 641.097C233.223 640.949 233.456 640.729 233.638 640.438C233.823 640.142 233.916 639.773 233.916 639.33ZM242.148 631.364H244.727L248.182 639.795H248.318L251.773 631.364H254.352V643H252.33V635.006H252.222L249.006 642.966H247.494L244.278 634.989H244.17V643H242.148V631.364ZM259.068 643.176C258.515 643.176 258.017 643.078 257.574 642.881C257.134 642.68 256.786 642.384 256.528 641.994C256.275 641.604 256.148 641.123 256.148 640.551C256.148 640.059 256.239 639.652 256.42 639.33C256.602 639.008 256.85 638.75 257.165 638.557C257.479 638.364 257.833 638.218 258.227 638.119C258.625 638.017 259.036 637.943 259.46 637.898C259.972 637.845 260.386 637.797 260.705 637.756C261.023 637.71 261.254 637.642 261.398 637.551C261.545 637.456 261.619 637.311 261.619 637.114V637.08C261.619 636.652 261.492 636.32 261.239 636.085C260.985 635.85 260.619 635.733 260.142 635.733C259.638 635.733 259.239 635.843 258.943 636.062C258.652 636.282 258.455 636.542 258.352 636.841L256.432 636.568C256.583 636.038 256.833 635.595 257.182 635.239C257.53 634.879 257.956 634.61 258.46 634.432C258.964 634.25 259.521 634.159 260.131 634.159C260.551 634.159 260.97 634.208 261.386 634.307C261.803 634.405 262.184 634.568 262.528 634.795C262.873 635.019 263.15 635.324 263.358 635.71C263.57 636.097 263.676 636.58 263.676 637.159V643H261.699V641.801H261.631C261.506 642.044 261.33 642.271 261.102 642.483C260.879 642.691 260.597 642.86 260.256 642.989C259.919 643.114 259.523 643.176 259.068 643.176ZM259.602 641.665C260.015 641.665 260.373 641.583 260.676 641.42C260.979 641.254 261.212 641.034 261.375 640.761C261.542 640.489 261.625 640.191 261.625 639.869V638.841C261.561 638.894 261.451 638.943 261.295 638.989C261.144 639.034 260.973 639.074 260.784 639.108C260.595 639.142 260.407 639.172 260.222 639.199C260.036 639.225 259.875 639.248 259.739 639.267C259.432 639.309 259.157 639.377 258.915 639.472C258.672 639.566 258.481 639.699 258.341 639.869C258.201 640.036 258.131 640.252 258.131 640.517C258.131 640.896 258.269 641.182 258.545 641.375C258.822 641.568 259.174 641.665 259.602 641.665ZM272.642 636.58L270.767 636.784C270.714 636.595 270.621 636.417 270.489 636.25C270.36 636.083 270.186 635.949 269.966 635.847C269.746 635.744 269.477 635.693 269.159 635.693C268.731 635.693 268.371 635.786 268.08 635.972C267.792 636.157 267.65 636.398 267.653 636.693C267.65 636.947 267.742 637.153 267.932 637.312C268.125 637.472 268.443 637.602 268.886 637.705L270.375 638.023C271.201 638.201 271.814 638.483 272.216 638.869C272.621 639.256 272.826 639.761 272.83 640.386C272.826 640.936 272.665 641.42 272.347 641.841C272.032 642.258 271.595 642.583 271.034 642.818C270.473 643.053 269.83 643.17 269.102 643.17C268.034 643.17 267.174 642.947 266.523 642.5C265.871 642.049 265.483 641.422 265.358 640.619L267.364 640.426C267.455 640.82 267.648 641.117 267.943 641.318C268.239 641.519 268.623 641.619 269.097 641.619C269.585 641.619 269.977 641.519 270.273 641.318C270.572 641.117 270.722 640.869 270.722 640.574C270.722 640.324 270.625 640.117 270.432 639.955C270.242 639.792 269.947 639.667 269.545 639.58L268.057 639.267C267.22 639.093 266.6 638.799 266.199 638.386C265.797 637.97 265.598 637.443 265.602 636.807C265.598 636.269 265.744 635.803 266.04 635.409C266.339 635.011 266.754 634.705 267.284 634.489C267.818 634.269 268.434 634.159 269.131 634.159C270.153 634.159 270.958 634.377 271.545 634.812C272.136 635.248 272.502 635.837 272.642 636.58ZM280.088 639.33V634.273H282.145V643H280.151V641.449H280.06C279.863 641.937 279.539 642.337 279.088 642.648C278.641 642.958 278.09 643.114 277.435 643.114C276.863 643.114 276.357 642.987 275.918 642.733C275.482 642.475 275.141 642.102 274.895 641.614C274.649 641.121 274.526 640.527 274.526 639.83V634.273H276.582V639.511C276.582 640.064 276.734 640.504 277.037 640.83C277.34 641.155 277.738 641.318 278.23 641.318C278.533 641.318 278.827 641.244 279.111 641.097C279.395 640.949 279.628 640.729 279.81 640.438C279.995 640.142 280.088 639.773 280.088 639.33ZM286.135 640.261L286.129 637.778H286.459L289.595 634.273H291.999L288.141 638.568H287.714L286.135 640.261ZM284.26 643V631.364H286.317V643H284.26ZM289.737 643L286.896 639.028L288.283 637.58L292.197 643H289.737Z" fill="black"/>
<path d="M1131.15 776.364H1133.73L1137.18 784.795H1137.32L1140.77 776.364H1143.35V788H1141.33V780.006H1141.22L1138.01 787.966H1136.49L1133.28 779.989H1133.17V788H1131.15V776.364ZM1145.56 788V779.273H1147.61V788H1145.56ZM1146.59 778.034C1146.27 778.034 1145.98 777.926 1145.75 777.71C1145.52 777.491 1145.4 777.227 1145.4 776.92C1145.4 776.61 1145.52 776.347 1145.75 776.131C1145.98 775.911 1146.27 775.801 1146.59 775.801C1146.92 775.801 1147.2 775.911 1147.43 776.131C1147.67 776.347 1147.78 776.61 1147.78 776.92C1147.78 777.227 1147.67 777.491 1147.43 777.71C1147.2 777.926 1146.92 778.034 1146.59 778.034ZM1151.6 785.261L1151.6 782.778H1151.93L1155.06 779.273H1157.47L1153.61 783.568H1153.18L1151.6 785.261ZM1149.73 788V776.364H1151.79V788H1149.73ZM1155.21 788L1152.37 784.028L1153.75 782.58L1157.67 788H1155.21ZM1158.84 788V779.273H1160.83V780.727H1160.92C1161.08 780.223 1161.36 779.835 1161.74 779.562C1162.13 779.286 1162.58 779.148 1163.08 779.148C1163.19 779.148 1163.32 779.153 1163.46 779.165C1163.6 779.172 1163.72 779.186 1163.82 779.205V781.097C1163.73 781.066 1163.59 781.04 1163.4 781.017C1163.21 780.991 1163.04 780.977 1162.86 780.977C1162.49 780.977 1162.15 781.059 1161.85 781.222C1161.55 781.381 1161.32 781.602 1161.15 781.886C1160.98 782.17 1160.89 782.498 1160.89 782.869V788H1158.84ZM1168.63 788.17C1167.78 788.17 1167.04 787.983 1166.41 787.608C1165.79 787.233 1165.3 786.708 1164.96 786.034C1164.62 785.36 1164.45 784.572 1164.45 783.67C1164.45 782.769 1164.62 781.979 1164.96 781.301C1165.3 780.623 1165.79 780.097 1166.41 779.722C1167.04 779.347 1167.78 779.159 1168.63 779.159C1169.48 779.159 1170.22 779.347 1170.85 779.722C1171.47 780.097 1171.95 780.623 1172.29 781.301C1172.64 781.979 1172.81 782.769 1172.81 783.67C1172.81 784.572 1172.64 785.36 1172.29 786.034C1171.95 786.708 1171.47 787.233 1170.85 787.608C1170.22 787.983 1169.48 788.17 1168.63 788.17ZM1168.64 786.523C1169.1 786.523 1169.49 786.396 1169.8 786.142C1170.11 785.884 1170.34 785.54 1170.49 785.108C1170.65 784.676 1170.73 784.195 1170.73 783.665C1170.73 783.131 1170.65 782.648 1170.49 782.216C1170.34 781.78 1170.11 781.434 1169.8 781.176C1169.49 780.919 1169.1 780.79 1168.64 780.79C1168.17 780.79 1167.77 780.919 1167.46 781.176C1167.15 781.434 1166.92 781.78 1166.76 782.216C1166.61 782.648 1166.53 783.131 1166.53 783.665C1166.53 784.195 1166.61 784.676 1166.76 785.108C1166.92 785.54 1167.15 785.884 1167.46 786.142C1167.77 786.396 1168.17 786.523 1168.64 786.523ZM1178.91 779.273V780.864H1173.9V779.273H1178.91ZM1175.14 777.182H1177.19V785.375C1177.19 785.652 1177.23 785.864 1177.32 786.011C1177.41 786.155 1177.52 786.254 1177.66 786.307C1177.8 786.36 1177.95 786.386 1178.12 786.386C1178.25 786.386 1178.37 786.377 1178.48 786.358C1178.59 786.339 1178.67 786.322 1178.73 786.307L1179.07 787.915C1178.96 787.953 1178.81 787.994 1178.6 788.04C1178.4 788.085 1178.16 788.112 1177.86 788.119C1177.35 788.134 1176.88 788.057 1176.47 787.886C1176.06 787.712 1175.73 787.443 1175.49 787.08C1175.25 786.716 1175.13 786.261 1175.14 785.716V777.182ZM1180.63 788V779.273H1182.69V788H1180.63ZM1181.67 778.034C1181.34 778.034 1181.06 777.926 1180.83 777.71C1180.59 777.491 1180.48 777.227 1180.48 776.92C1180.48 776.61 1180.59 776.347 1180.83 776.131C1181.06 775.911 1181.34 775.801 1181.67 775.801C1182 775.801 1182.28 775.911 1182.51 776.131C1182.74 776.347 1182.86 776.61 1182.86 776.92C1182.86 777.227 1182.74 777.491 1182.51 777.71C1182.28 777.926 1182 778.034 1181.67 778.034ZM1186.68 785.261L1186.68 782.778H1187.01L1190.14 779.273H1192.55L1188.69 783.568H1188.26L1186.68 785.261ZM1184.81 788V776.364H1186.86V788H1184.81ZM1190.28 788L1187.44 784.028L1188.83 782.58L1192.74 788H1190.28Z" fill="black"/>
<path d="M1130.15 138V126.364H1134.51C1135.41 126.364 1136.16 126.53 1136.76 126.864C1137.37 127.197 1137.83 127.655 1138.14 128.239C1138.46 128.818 1138.61 129.477 1138.61 130.216C1138.61 130.962 1138.46 131.625 1138.14 132.205C1137.83 132.784 1137.36 133.241 1136.75 133.574C1136.14 133.903 1135.38 134.068 1134.48 134.068H1131.59V132.335H1134.2C1134.72 132.335 1135.15 132.244 1135.48 132.062C1135.82 131.881 1136.06 131.631 1136.22 131.312C1136.38 130.994 1136.47 130.629 1136.47 130.216C1136.47 129.803 1136.38 129.439 1136.22 129.125C1136.06 128.811 1135.81 128.566 1135.48 128.392C1135.14 128.214 1134.71 128.125 1134.19 128.125H1132.26V138H1130.15ZM1140.35 138V129.273H1142.41V138H1140.35ZM1141.39 128.034C1141.06 128.034 1140.78 127.926 1140.55 127.71C1140.31 127.491 1140.19 127.227 1140.19 126.92C1140.19 126.61 1140.31 126.347 1140.55 126.131C1140.78 125.911 1141.06 125.801 1141.39 125.801C1141.72 125.801 1142 125.911 1142.23 126.131C1142.46 126.347 1142.58 126.61 1142.58 126.92C1142.58 127.227 1142.46 127.491 1142.23 127.71C1142 127.926 1141.72 128.034 1141.39 128.034ZM1146.58 132.886V138H1144.53V129.273H1146.49V130.756H1146.59C1146.79 130.267 1147.11 129.879 1147.55 129.591C1148 129.303 1148.54 129.159 1149.2 129.159C1149.8 129.159 1150.32 129.288 1150.77 129.545C1151.22 129.803 1151.57 130.176 1151.82 130.665C1152.07 131.153 1152.19 131.746 1152.18 132.443V138H1150.13V132.761C1150.13 132.178 1149.98 131.722 1149.67 131.392C1149.37 131.062 1148.96 130.898 1148.43 130.898C1148.07 130.898 1147.75 130.977 1147.47 131.136C1147.19 131.292 1146.97 131.517 1146.82 131.812C1146.66 132.108 1146.58 132.466 1146.58 132.886ZM1158.63 129.273V130.864H1153.62V129.273H1158.63ZM1154.86 127.182H1156.91V135.375C1156.91 135.652 1156.95 135.864 1157.04 136.011C1157.12 136.155 1157.24 136.254 1157.38 136.307C1157.52 136.36 1157.67 136.386 1157.84 136.386C1157.97 136.386 1158.09 136.377 1158.2 136.358C1158.31 136.339 1158.39 136.322 1158.45 136.307L1158.79 137.915C1158.68 137.953 1158.53 137.994 1158.32 138.04C1158.12 138.085 1157.87 138.112 1157.58 138.119C1157.07 138.134 1156.6 138.057 1156.19 137.886C1155.78 137.712 1155.45 137.443 1155.21 137.08C1154.97 136.716 1154.85 136.261 1154.86 135.716V127.182ZM1165.92 134.33V129.273H1167.97V138H1165.98V136.449H1165.89C1165.69 136.937 1165.37 137.337 1164.92 137.648C1164.47 137.958 1163.92 138.114 1163.26 138.114C1162.69 138.114 1162.19 137.987 1161.75 137.733C1161.31 137.475 1160.97 137.102 1160.72 136.614C1160.48 136.121 1160.35 135.527 1160.35 134.83V129.273H1162.41V134.511C1162.41 135.064 1162.56 135.504 1162.87 135.83C1163.17 136.155 1163.57 136.318 1164.06 136.318C1164.36 136.318 1164.65 136.244 1164.94 136.097C1165.22 135.949 1165.46 135.729 1165.64 135.438C1165.82 135.142 1165.92 134.773 1165.92 134.33ZM1181.94 130.08C1181.85 129.773 1181.72 129.498 1181.55 129.256C1181.39 129.009 1181.19 128.799 1180.96 128.625C1180.73 128.451 1180.47 128.32 1180.18 128.233C1179.88 128.142 1179.56 128.097 1179.21 128.097C1178.59 128.097 1178.03 128.254 1177.54 128.568C1177.05 128.883 1176.67 129.345 1176.39 129.955C1176.11 130.561 1175.97 131.299 1175.97 132.17C1175.97 133.049 1176.11 133.794 1176.39 134.403C1176.66 135.013 1177.05 135.477 1177.54 135.795C1178.03 136.11 1178.6 136.267 1179.26 136.267C1179.85 136.267 1180.36 136.153 1180.79 135.926C1181.23 135.699 1181.56 135.377 1181.8 134.96C1182.03 134.54 1182.15 134.047 1182.15 133.483L1182.62 133.557H1179.47V131.909H1184.19V133.307C1184.19 134.303 1183.98 135.165 1183.55 135.892C1183.13 136.619 1182.54 137.18 1181.8 137.574C1181.06 137.964 1180.21 138.159 1179.24 138.159C1178.17 138.159 1177.23 137.919 1176.42 137.438C1175.61 136.953 1174.98 136.265 1174.53 135.375C1174.08 134.481 1173.85 133.42 1173.85 132.193C1173.85 131.254 1173.98 130.415 1174.25 129.676C1174.52 128.938 1174.89 128.311 1175.38 127.795C1175.86 127.277 1176.42 126.883 1177.07 126.614C1177.72 126.341 1178.42 126.205 1179.18 126.205C1179.83 126.205 1180.43 126.299 1180.98 126.489C1181.54 126.674 1182.03 126.939 1182.47 127.284C1182.9 127.629 1183.26 128.038 1183.54 128.511C1183.82 128.985 1184 129.508 1184.09 130.08H1181.94ZM1191.7 134.33V129.273H1193.75V138H1191.76V136.449H1191.67C1191.47 136.937 1191.15 137.337 1190.7 137.648C1190.25 137.958 1189.7 138.114 1189.04 138.114C1188.47 138.114 1187.97 137.987 1187.53 137.733C1187.09 137.475 1186.75 137.102 1186.5 136.614C1186.26 136.121 1186.13 135.527 1186.13 134.83V129.273H1188.19V134.511C1188.19 135.064 1188.34 135.504 1188.65 135.83C1188.95 136.155 1189.35 136.318 1189.84 136.318C1190.14 136.318 1190.44 136.244 1190.72 136.097C1191 135.949 1191.24 135.729 1191.42 135.438C1191.6 135.142 1191.7 134.773 1191.7 134.33ZM1195.87 138V129.273H1197.86V130.727H1197.95C1198.11 130.223 1198.39 129.835 1198.77 129.562C1199.16 129.286 1199.61 129.148 1200.11 129.148C1200.22 129.148 1200.35 129.153 1200.49 129.165C1200.63 129.172 1200.75 129.186 1200.85 129.205V131.097C1200.76 131.066 1200.62 131.04 1200.43 131.017C1200.25 130.991 1200.07 130.977 1199.89 130.977C1199.52 130.977 1199.18 131.059 1198.88 131.222C1198.59 131.381 1198.35 131.602 1198.18 131.886C1198.01 132.17 1197.93 132.498 1197.93 132.869V138H1195.87ZM1207.78 134.33V129.273H1209.83V138H1207.84V136.449H1207.75C1207.55 136.937 1207.23 137.337 1206.78 137.648C1206.33 137.958 1205.78 138.114 1205.12 138.114C1204.55 138.114 1204.04 137.987 1203.61 137.733C1203.17 137.475 1202.83 137.102 1202.58 136.614C1202.34 136.121 1202.21 135.527 1202.21 134.83V129.273H1204.27V134.511C1204.27 135.064 1204.42 135.504 1204.72 135.83C1205.03 136.155 1205.43 136.318 1205.92 136.318C1206.22 136.318 1206.51 136.244 1206.8 136.097C1207.08 135.949 1207.32 135.729 1207.5 135.438C1207.68 135.142 1207.78 134.773 1207.78 134.33Z" fill="black"/>
<path d="M404.526 501H400.571L406.597 483.545H411.352L417.369 501H413.415L409.043 487.534H408.906L404.526 501ZM404.278 494.139H413.619V497.02H404.278V494.139ZM426.141 483.545V501H422.451V487.048H422.349L418.352 489.554V486.281L422.673 483.545H426.141Z" fill="black"/>
<path d="M555.526 501H551.571L557.597 483.545H562.352L568.369 501H564.415L560.043 487.534H559.906L555.526 501ZM555.278 494.139H564.619V497.02H555.278V494.139ZM570.368 501V498.341L576.581 492.588C577.109 492.077 577.553 491.616 577.911 491.207C578.274 490.798 578.55 490.398 578.737 490.006C578.925 489.608 579.018 489.179 579.018 488.719C579.018 488.207 578.902 487.767 578.669 487.398C578.436 487.023 578.118 486.736 577.714 486.537C577.311 486.332 576.854 486.23 576.342 486.23C575.808 486.23 575.342 486.338 574.945 486.554C574.547 486.77 574.24 487.08 574.024 487.483C573.808 487.886 573.7 488.366 573.7 488.923H570.197C570.197 487.781 570.456 486.79 570.973 485.949C571.49 485.108 572.214 484.457 573.146 483.997C574.078 483.537 575.152 483.307 576.368 483.307C577.618 483.307 578.706 483.528 579.632 483.972C580.564 484.409 581.288 485.017 581.805 485.795C582.322 486.574 582.581 487.466 582.581 488.472C582.581 489.131 582.45 489.781 582.189 490.423C581.933 491.065 581.476 491.778 580.817 492.562C580.158 493.341 579.229 494.276 578.03 495.366L575.482 497.864V497.983H582.811V501H570.368Z" fill="black"/>
<path d="M598.517 450V432.545H605.506C606.79 432.545 607.861 432.736 608.719 433.116C609.577 433.497 610.222 434.026 610.653 434.702C611.085 435.372 611.301 436.145 611.301 437.02C611.301 437.702 611.165 438.301 610.892 438.818C610.619 439.33 610.244 439.75 609.767 440.08C609.295 440.403 608.756 440.634 608.148 440.77V440.94C608.813 440.969 609.435 441.156 610.014 441.503C610.599 441.849 611.074 442.335 611.438 442.96C611.801 443.58 611.983 444.318 611.983 445.176C611.983 446.102 611.753 446.929 611.293 447.656C610.838 448.378 610.165 448.949 609.273 449.369C608.381 449.79 607.281 450 605.974 450H598.517ZM602.207 446.983H605.216C606.244 446.983 606.994 446.787 607.466 446.395C607.938 445.997 608.173 445.469 608.173 444.81C608.173 444.327 608.057 443.901 607.824 443.531C607.591 443.162 607.259 442.872 606.827 442.662C606.401 442.452 605.892 442.347 605.301 442.347H602.207V446.983ZM602.207 439.849H604.943C605.449 439.849 605.898 439.761 606.29 439.585C606.688 439.403 607 439.148 607.227 438.818C607.46 438.489 607.577 438.094 607.577 437.634C607.577 437.003 607.352 436.494 606.903 436.108C606.46 435.722 605.83 435.528 605.011 435.528H602.207V439.849ZM621.876 432.545V450H618.185V436.048H618.083L614.086 438.554V435.281L618.407 432.545H621.876Z" fill="black"/>
<rect id="C1" x="834.5" y="438.679" width="73.8582" height="150.716" fill="#864700" stroke="black" stroke-width="3"/>
<rect id="C2" x="834.5" y="286.5" width="73.8582" height="150.716" fill="#864700" stroke="black" stroke-width="3"/>
<path d="M803.918 510.656H800.185C800.116 510.173 799.977 509.744 799.767 509.369C799.557 508.989 799.287 508.665 798.957 508.398C798.628 508.131 798.247 507.926 797.815 507.784C797.389 507.642 796.926 507.571 796.426 507.571C795.523 507.571 794.736 507.795 794.065 508.244C793.395 508.687 792.875 509.335 792.506 510.188C792.136 511.034 791.952 512.062 791.952 513.273C791.952 514.517 792.136 515.562 792.506 516.409C792.881 517.256 793.403 517.895 794.074 518.327C794.744 518.759 795.52 518.974 796.401 518.974C796.895 518.974 797.352 518.909 797.773 518.778C798.199 518.648 798.577 518.457 798.906 518.207C799.236 517.952 799.509 517.642 799.724 517.278C799.946 516.915 800.099 516.5 800.185 516.034L803.918 516.051C803.821 516.852 803.58 517.625 803.193 518.369C802.813 519.108 802.298 519.77 801.651 520.355C801.009 520.935 800.241 521.395 799.349 521.736C798.463 522.071 797.46 522.239 796.341 522.239C794.784 522.239 793.392 521.886 792.165 521.182C790.943 520.477 789.977 519.457 789.267 518.122C788.562 516.787 788.21 515.17 788.21 513.273C788.21 511.369 788.568 509.75 789.284 508.415C790 507.08 790.972 506.062 792.199 505.364C793.426 504.659 794.807 504.307 796.341 504.307C797.352 504.307 798.29 504.449 799.153 504.733C800.023 505.017 800.793 505.432 801.463 505.977C802.134 506.517 802.679 507.179 803.099 507.963C803.526 508.747 803.798 509.645 803.918 510.656ZM814.055 504.545V522H810.365V508.048H810.263L806.266 510.554V507.281L810.587 504.545H814.055Z" fill="black"/>
<path d="M803.918 358.656H800.185C800.116 358.173 799.977 357.744 799.767 357.369C799.557 356.989 799.287 356.665 798.957 356.398C798.628 356.131 798.247 355.926 797.815 355.784C797.389 355.642 796.926 355.571 796.426 355.571C795.523 355.571 794.736 355.795 794.065 356.244C793.395 356.687 792.875 357.335 792.506 358.188C792.136 359.034 791.952 360.062 791.952 361.273C791.952 362.517 792.136 363.562 792.506 364.409C792.881 365.256 793.403 365.895 794.074 366.327C794.744 366.759 795.52 366.974 796.401 366.974C796.895 366.974 797.352 366.909 797.773 366.778C798.199 366.648 798.577 366.457 798.906 366.207C799.236 365.952 799.509 365.642 799.724 365.278C799.946 364.915 800.099 364.5 800.185 364.034L803.918 364.051C803.821 364.852 803.58 365.625 803.193 366.369C802.813 367.108 802.298 367.77 801.651 368.355C801.009 368.935 800.241 369.395 799.349 369.736C798.463 370.071 797.46 370.239 796.341 370.239C794.784 370.239 793.392 369.886 792.165 369.182C790.943 368.477 789.977 367.457 789.267 366.122C788.562 364.787 788.21 363.17 788.21 361.273C788.21 359.369 788.568 357.75 789.284 356.415C790 355.08 790.972 354.062 792.199 353.364C793.426 352.659 794.807 352.307 796.341 352.307C797.352 352.307 798.29 352.449 799.153 352.733C800.023 353.017 800.793 353.432 801.463 353.977C802.134 354.517 802.679 355.179 803.099 355.963C803.526 356.747 803.798 357.645 803.918 358.656ZM806.462 370V367.341L812.675 361.588C813.203 361.077 813.646 360.616 814.004 360.207C814.368 359.798 814.643 359.398 814.831 359.006C815.018 358.608 815.112 358.179 815.112 357.719C815.112 357.207 814.996 356.767 814.763 356.398C814.53 356.023 814.212 355.736 813.808 355.537C813.405 355.332 812.947 355.23 812.436 355.23C811.902 355.23 811.436 355.338 811.038 355.554C810.641 355.77 810.334 356.08 810.118 356.483C809.902 356.886 809.794 357.366 809.794 357.923H806.291C806.291 356.781 806.55 355.79 807.067 354.949C807.584 354.108 808.308 353.457 809.24 352.997C810.172 352.537 811.246 352.307 812.462 352.307C813.712 352.307 814.8 352.528 815.726 352.972C816.658 353.409 817.382 354.017 817.899 354.795C818.416 355.574 818.675 356.466 818.675 357.472C818.675 358.131 818.544 358.781 818.283 359.423C818.027 360.065 817.57 360.778 816.911 361.562C816.251 362.341 815.322 363.276 814.124 364.366L811.575 366.864V366.983H818.905V370H806.462Z" fill="black"/>
<path d="M783.705 251H777.517V233.545H783.756C785.511 233.545 787.023 233.895 788.29 234.594C789.557 235.287 790.531 236.284 791.213 237.585C791.901 238.886 792.244 240.443 792.244 242.256C792.244 244.074 791.901 245.636 791.213 246.943C790.531 248.25 789.551 249.253 788.273 249.952C787 250.651 785.477 251 783.705 251ZM781.207 247.838H783.551C784.642 247.838 785.56 247.645 786.304 247.259C787.054 246.866 787.616 246.261 787.991 245.443C788.372 244.619 788.562 243.557 788.562 242.256C788.562 240.966 788.372 239.912 787.991 239.094C787.616 238.276 787.057 237.673 786.312 237.287C785.568 236.901 784.651 236.707 783.56 236.707H781.207V247.838ZM802.469 233.545V251H798.779V237.048H798.677L794.68 239.554V236.281L799.001 233.545H802.469Z" fill="black"/>
<rect x="1025.64" y="523.223" width="73.8582" height="150.716" fill="#864700" stroke="black" stroke-width="3"/>
<rect id="E1" x="1025.64" y="523.223" width="73.8582" height="150.716" fill="#864700" stroke="black" stroke-width="3"/>
<rect id="E3" x="1025.64" y="286.5" width="73.8582" height="150.716" fill="#864700" stroke="black" stroke-width="3"/>
<rect id="E2" x="1025.64" y="437.911" width="73.8582" height="84.6183" fill="#864700" stroke="black" stroke-width="3"/>
<path d="M979.517 606.868V589.414H991.278V592.456H983.207V596.615H990.673V599.658H983.207V603.826H991.312V606.868H979.517ZM1001.7 589.414V606.868H998.013V592.917H997.911L993.914 595.422V592.149L998.235 589.414H1001.7Z" fill="black"/>
<path d="M979.517 487.868V470.414H991.278V473.456H983.207V477.615H990.673V480.658H983.207V484.826H991.312V487.868H979.517ZM994.11 487.868V485.209L1000.32 479.456C1000.85 478.945 1001.29 478.485 1001.65 478.076C1002.02 477.667 1002.29 477.266 1002.48 476.874C1002.67 476.476 1002.76 476.047 1002.76 475.587C1002.76 475.076 1002.64 474.635 1002.41 474.266C1002.18 473.891 1001.86 473.604 1001.46 473.405C1001.05 473.201 1000.6 473.098 1000.08 473.098C999.55 473.098 999.085 473.206 998.687 473.422C998.289 473.638 997.982 473.948 997.766 474.351C997.55 474.755 997.442 475.235 997.442 475.792H993.94C993.94 474.649 994.198 473.658 994.715 472.817C995.232 471.976 995.957 471.326 996.888 470.865C997.82 470.405 998.894 470.175 1000.11 470.175C1001.36 470.175 1002.45 470.397 1003.37 470.84C1004.31 471.277 1005.03 471.885 1005.55 472.664C1006.06 473.442 1006.32 474.334 1006.32 475.34C1006.32 475.999 1006.19 476.649 1005.93 477.292C1005.68 477.934 1005.22 478.647 1004.56 479.431C1003.9 480.209 1002.97 481.144 1001.77 482.235L999.224 484.732V484.851H1006.55V487.868H994.11Z" fill="black"/>
<path d="M980.517 369.868V352.414H992.278V355.456H984.207V359.615H991.673V362.658H984.207V366.826H992.312V369.868H980.517ZM1001.56 370.107C1000.29 370.107 999.156 369.888 998.161 369.451C997.173 369.007 996.391 368.399 995.817 367.627C995.249 366.848 994.957 365.951 994.94 364.934H998.656C998.678 365.36 998.817 365.735 999.073 366.059C999.335 366.377 999.681 366.624 1000.11 366.8C1000.54 366.976 1001.03 367.064 1001.57 367.064C1002.13 367.064 1002.63 366.965 1003.06 366.766C1003.49 366.567 1003.83 366.292 1004.08 365.939C1004.32 365.587 1004.44 365.181 1004.44 364.72C1004.44 364.255 1004.31 363.843 1004.05 363.485C1003.79 363.121 1003.43 362.837 1002.94 362.632C1002.47 362.428 1001.9 362.326 1001.24 362.326H999.61V359.615H1001.24C1001.79 359.615 1002.29 359.519 1002.71 359.326C1003.14 359.132 1003.48 358.865 1003.72 358.524C1003.96 358.178 1004.08 357.774 1004.08 357.314C1004.08 356.877 1003.97 356.493 1003.76 356.164C1003.56 355.828 1003.27 355.567 1002.89 355.38C1002.52 355.192 1002.09 355.098 1001.6 355.098C1001.1 355.098 1000.64 355.189 1000.22 355.371C999.809 355.547 999.477 355.8 999.227 356.13C998.977 356.459 998.843 356.845 998.826 357.289H995.289C995.306 356.283 995.593 355.397 996.15 354.63C996.707 353.863 997.457 353.263 998.4 352.831C999.349 352.394 1000.42 352.175 1001.61 352.175C1002.82 352.175 1003.87 352.394 1004.77 352.831C1005.68 353.269 1006.38 353.86 1006.88 354.604C1007.39 355.343 1007.64 356.172 1007.63 357.093C1007.64 358.07 1007.33 358.885 1006.72 359.539C1006.11 360.192 1005.32 360.607 1004.34 360.783V360.919C1005.62 361.084 1006.6 361.53 1007.27 362.257C1007.95 362.979 1008.28 363.882 1008.28 364.968C1008.28 365.962 1008 366.845 1007.42 367.618C1006.84 368.391 1006.05 368.999 1005.04 369.442C1004.03 369.885 1002.87 370.107 1001.56 370.107Z" fill="black"/>
<path d="M938.705 251H932.517V233.545H938.756C940.511 233.545 942.023 233.895 943.29 234.594C944.557 235.287 945.531 236.284 946.213 237.585C946.901 238.886 947.244 240.443 947.244 242.256C947.244 244.074 946.901 245.636 946.213 246.943C945.531 248.25 944.551 249.253 943.273 249.952C942 250.651 940.477 251 938.705 251ZM936.207 247.838H938.551C939.642 247.838 940.56 247.645 941.304 247.259C942.054 246.866 942.616 246.261 942.991 245.443C943.372 244.619 943.562 243.557 943.562 242.256C943.562 240.966 943.372 239.912 942.991 239.094C942.616 238.276 942.057 237.673 941.312 237.287C940.568 236.901 939.651 236.707 938.56 236.707H936.207V247.838ZM949.876 251V248.341L956.089 242.588C956.617 242.077 957.06 241.616 957.418 241.207C957.782 240.798 958.058 240.398 958.245 240.006C958.433 239.608 958.526 239.179 958.526 238.719C958.526 238.207 958.41 237.767 958.177 237.398C957.944 237.023 957.626 236.736 957.222 236.537C956.819 236.332 956.362 236.23 955.85 236.23C955.316 236.23 954.85 236.338 954.452 236.554C954.055 236.77 953.748 237.08 953.532 237.483C953.316 237.886 953.208 238.366 953.208 238.923H949.705C949.705 237.781 949.964 236.79 950.481 235.949C950.998 235.108 951.722 234.457 952.654 233.997C953.586 233.537 954.66 233.307 955.876 233.307C957.126 233.307 958.214 233.528 959.14 233.972C960.072 234.409 960.796 235.017 961.313 235.795C961.83 236.574 962.089 237.466 962.089 238.472C962.089 239.131 961.958 239.781 961.697 240.423C961.441 241.065 960.984 241.778 960.325 242.562C959.665 243.341 958.737 244.276 957.538 245.366L954.989 247.864V247.983H962.319V251H949.876Z" fill="black"/>
<path d="M598.517 301V283.545H605.506C606.79 283.545 607.861 283.736 608.719 284.116C609.577 284.497 610.222 285.026 610.653 285.702C611.085 286.372 611.301 287.145 611.301 288.02C611.301 288.702 611.165 289.301 610.892 289.818C610.619 290.33 610.244 290.75 609.767 291.08C609.295 291.403 608.756 291.634 608.148 291.77V291.94C608.813 291.969 609.435 292.156 610.014 292.503C610.599 292.849 611.074 293.335 611.438 293.96C611.801 294.58 611.983 295.318 611.983 296.176C611.983 297.102 611.753 297.929 611.293 298.656C610.838 299.378 610.165 299.949 609.273 300.369C608.381 300.79 607.281 301 605.974 301H598.517ZM602.207 297.983H605.216C606.244 297.983 606.994 297.787 607.466 297.395C607.938 296.997 608.173 296.469 608.173 295.81C608.173 295.327 608.057 294.901 607.824 294.531C607.591 294.162 607.259 293.872 606.827 293.662C606.401 293.452 605.892 293.347 605.301 293.347H602.207V297.983ZM602.207 290.849H604.943C605.449 290.849 605.898 290.761 606.29 290.585C606.688 290.403 607 290.148 607.227 289.818C607.46 289.489 607.577 289.094 607.577 288.634C607.577 288.003 607.352 287.494 606.903 287.108C606.46 286.722 605.83 286.528 605.011 286.528H602.207V290.849ZM614.282 301V298.341L620.495 292.588C621.023 292.077 621.467 291.616 621.825 291.207C622.188 290.798 622.464 290.398 622.651 290.006C622.839 289.608 622.933 289.179 622.933 288.719C622.933 288.207 622.816 287.767 622.583 287.398C622.35 287.023 622.032 286.736 621.629 286.537C621.225 286.332 620.768 286.23 620.256 286.23C619.722 286.23 619.256 286.338 618.859 286.554C618.461 286.77 618.154 287.08 617.938 287.483C617.722 287.886 617.614 288.366 617.614 288.923H614.112C614.112 287.781 614.37 286.79 614.887 285.949C615.404 285.108 616.129 284.457 617.06 283.997C617.992 283.537 619.066 283.307 620.282 283.307C621.532 283.307 622.62 283.528 623.546 283.972C624.478 284.409 625.202 285.017 625.719 285.795C626.237 286.574 626.495 287.466 626.495 288.472C626.495 289.131 626.364 289.781 626.103 290.423C625.847 291.065 625.39 291.778 624.731 292.562C624.072 293.341 623.143 294.276 621.944 295.366L619.396 297.864V297.983H626.725V301H614.282Z" fill="black"/>
<rect x="1084.5" y="745.5" width="14" height="74" fill="#D9D9D9" stroke="black"/>
<path d="M759.148 845.364H761.727L765.182 853.795H765.318L768.773 845.364H771.352V857H769.33V849.006H769.222L766.006 856.966H764.494L761.278 848.989H761.17V857H759.148V845.364ZM777.42 857.17C776.545 857.17 775.79 856.989 775.153 856.625C774.521 856.258 774.034 855.739 773.693 855.068C773.352 854.394 773.182 853.6 773.182 852.688C773.182 851.79 773.352 851.002 773.693 850.324C774.038 849.642 774.519 849.112 775.136 848.733C775.754 848.35 776.479 848.159 777.312 848.159C777.85 848.159 778.358 848.246 778.835 848.42C779.316 848.591 779.741 848.856 780.108 849.216C780.479 849.576 780.771 850.034 780.983 850.591C781.195 851.144 781.301 851.803 781.301 852.568V853.199H774.148V851.812H779.33C779.326 851.419 779.241 851.068 779.074 850.761C778.907 850.451 778.674 850.206 778.375 850.028C778.08 849.85 777.735 849.761 777.341 849.761C776.92 849.761 776.551 849.864 776.233 850.068C775.915 850.269 775.667 850.534 775.489 850.864C775.314 851.189 775.225 851.547 775.222 851.938V853.148C775.222 853.655 775.314 854.091 775.5 854.455C775.686 854.814 775.945 855.091 776.278 855.284C776.612 855.473 777.002 855.568 777.449 855.568C777.748 855.568 778.019 855.527 778.261 855.443C778.504 855.356 778.714 855.229 778.892 855.062C779.07 854.896 779.205 854.689 779.295 854.443L781.216 854.659C781.095 855.167 780.864 855.61 780.523 855.989C780.186 856.364 779.754 856.655 779.227 856.864C778.701 857.068 778.098 857.17 777.42 857.17ZM783.041 848.273H785.098V857.5C785.098 858.129 784.979 858.648 784.74 859.057C784.501 859.466 784.157 859.771 783.706 859.972C783.255 860.172 782.708 860.273 782.064 860.273C781.988 860.273 781.918 860.271 781.854 860.267C781.789 860.267 781.719 860.265 781.643 860.261V858.585C781.7 858.589 781.751 858.591 781.797 858.591C781.842 858.595 781.89 858.597 781.939 858.597C782.333 858.597 782.615 858.5 782.786 858.307C782.956 858.117 783.041 857.839 783.041 857.472V848.273ZM784.064 847.034C783.734 847.034 783.452 846.926 783.217 846.71C782.986 846.491 782.871 846.227 782.871 845.92C782.871 845.61 782.986 845.347 783.217 845.131C783.452 844.911 783.734 844.801 784.064 844.801C784.39 844.801 784.668 844.911 784.899 845.131C785.134 845.347 785.251 845.61 785.251 845.92C785.251 846.227 785.134 846.491 784.899 846.71C784.668 846.926 784.39 847.034 784.064 847.034ZM789.724 857.176C789.171 857.176 788.673 857.078 788.23 856.881C787.791 856.68 787.442 856.384 787.185 855.994C786.931 855.604 786.804 855.123 786.804 854.551C786.804 854.059 786.895 853.652 787.077 853.33C787.259 853.008 787.507 852.75 787.821 852.557C788.135 852.364 788.49 852.218 788.884 852.119C789.281 852.017 789.692 851.943 790.116 851.898C790.628 851.845 791.043 851.797 791.361 851.756C791.679 851.71 791.91 851.642 792.054 851.551C792.202 851.456 792.276 851.311 792.276 851.114V851.08C792.276 850.652 792.149 850.32 791.895 850.085C791.641 849.85 791.276 849.733 790.798 849.733C790.295 849.733 789.895 849.843 789.599 850.062C789.308 850.282 789.111 850.542 789.009 850.841L787.088 850.568C787.24 850.038 787.49 849.595 787.838 849.239C788.187 848.879 788.613 848.61 789.116 848.432C789.62 848.25 790.177 848.159 790.787 848.159C791.207 848.159 791.626 848.208 792.043 848.307C792.459 848.405 792.84 848.568 793.185 848.795C793.529 849.019 793.806 849.324 794.014 849.71C794.226 850.097 794.332 850.58 794.332 851.159V857H792.355V855.801H792.287C792.162 856.044 791.986 856.271 791.759 856.483C791.535 856.691 791.253 856.86 790.912 856.989C790.575 857.114 790.179 857.176 789.724 857.176ZM790.259 855.665C790.671 855.665 791.029 855.583 791.332 855.42C791.635 855.254 791.868 855.034 792.031 854.761C792.198 854.489 792.281 854.191 792.281 853.869V852.841C792.217 852.894 792.107 852.943 791.952 852.989C791.8 853.034 791.63 853.074 791.44 853.108C791.251 853.142 791.063 853.172 790.878 853.199C790.692 853.225 790.531 853.248 790.395 853.267C790.088 853.309 789.813 853.377 789.571 853.472C789.329 853.566 789.137 853.699 788.997 853.869C788.857 854.036 788.787 854.252 788.787 854.517C788.787 854.896 788.925 855.182 789.202 855.375C789.478 855.568 789.83 855.665 790.259 855.665ZM808.256 849.08C808.161 848.773 808.03 848.498 807.864 848.256C807.701 848.009 807.504 847.799 807.273 847.625C807.045 847.451 806.784 847.32 806.489 847.233C806.193 847.142 805.871 847.097 805.523 847.097C804.898 847.097 804.341 847.254 803.852 847.568C803.364 847.883 802.979 848.345 802.699 848.955C802.422 849.561 802.284 850.299 802.284 851.17C802.284 852.049 802.422 852.794 802.699 853.403C802.975 854.013 803.36 854.477 803.852 854.795C804.345 855.11 804.917 855.267 805.568 855.267C806.159 855.267 806.67 855.153 807.102 854.926C807.538 854.699 807.873 854.377 808.108 853.96C808.343 853.54 808.46 853.047 808.46 852.483L808.938 852.557H805.778V850.909H810.5V852.307C810.5 853.303 810.288 854.165 809.864 854.892C809.439 855.619 808.856 856.18 808.114 856.574C807.371 856.964 806.519 857.159 805.557 857.159C804.485 857.159 803.544 856.919 802.733 856.438C801.926 855.953 801.295 855.265 800.841 854.375C800.39 853.481 800.165 852.42 800.165 851.193C800.165 850.254 800.297 849.415 800.562 848.676C800.831 847.938 801.206 847.311 801.688 846.795C802.169 846.277 802.733 845.883 803.381 845.614C804.028 845.341 804.733 845.205 805.494 845.205C806.138 845.205 806.739 845.299 807.295 845.489C807.852 845.674 808.347 845.939 808.778 846.284C809.214 846.629 809.572 847.038 809.852 847.511C810.133 847.985 810.316 848.508 810.403 849.08H808.256ZM818.01 853.33V848.273H820.067V857H818.072V855.449H817.982C817.785 855.937 817.461 856.337 817.01 856.648C816.563 856.958 816.012 857.114 815.357 857.114C814.785 857.114 814.279 856.987 813.839 856.733C813.404 856.475 813.063 856.102 812.817 855.614C812.571 855.121 812.447 854.527 812.447 853.83V848.273H814.504V853.511C814.504 854.064 814.656 854.504 814.959 854.83C815.262 855.155 815.66 855.318 816.152 855.318C816.455 855.318 816.749 855.244 817.033 855.097C817.317 854.949 817.55 854.729 817.732 854.438C817.917 854.142 818.01 853.773 818.01 853.33ZM822.182 857V848.273H824.176V849.727H824.267C824.426 849.223 824.699 848.835 825.085 848.562C825.475 848.286 825.92 848.148 826.42 848.148C826.534 848.148 826.661 848.153 826.801 848.165C826.945 848.172 827.064 848.186 827.159 848.205V850.097C827.072 850.066 826.934 850.04 826.744 850.017C826.559 849.991 826.379 849.977 826.205 849.977C825.83 849.977 825.492 850.059 825.193 850.222C824.898 850.381 824.665 850.602 824.494 850.886C824.324 851.17 824.239 851.498 824.239 851.869V857H822.182ZM834.088 853.33V848.273H836.145V857H834.151V855.449H834.06C833.863 855.937 833.539 856.337 833.088 856.648C832.641 856.958 832.09 857.114 831.435 857.114C830.863 857.114 830.357 856.987 829.918 856.733C829.482 856.475 829.141 856.102 828.895 855.614C828.649 855.121 828.526 854.527 828.526 853.83V848.273H830.582V853.511C830.582 854.064 830.734 854.504 831.037 854.83C831.34 855.155 831.738 855.318 832.23 855.318C832.533 855.318 832.827 855.244 833.111 855.097C833.395 854.949 833.628 854.729 833.81 854.438C833.995 854.142 834.088 853.773 834.088 853.33Z" fill="black"/>
</svg>
